<?xml version="1.0" encoding="UTF-8"?>
<svg version="1.1" xmlns="http://www.w3.org/2000/svg" xmlns:xlink="http://www.w3.org/1999/xlink" width="128" height="128" viewBox="0 0 128 128" fill="none">
<!--glyph: "uni10199A.medium", point size: 100.0, font version: "19.0d8e1", template writer version: "128"-->
<g clip-path="url(#clip0_101_2)">
<rect x="3.83016" y="-6.76978" width="69" height="69" rx="15.5" transform="matrix(0.96363 -0.267238 -0.267238 -0.96363 19.7092 91.2002)" stroke="black" stroke-width="11"/>
<rect width="80" height="80" rx="21" transform="matrix(0.96363 -0.267238 -0.267238 -0.96363 51.3791 123.47)" fill="black"/>
<path d="M92.8364 62.2851C92.554 65.817 91.9873 69.1621 91.1364 72.3204C90.3077 75.4393 89.2034 78.4022 87.8233 81.2091C90.5755 82.2722 93.5411 83.0272 96.7201 83.4739C99.9299 83.912 103.333 84.0308 106.931 83.8302C106.552 84.4998 106.154 85.3406 105.737 86.3528C105.343 87.3256 104.984 88.3052 104.66 89.2917C104.344 90.3091 104.106 91.1886 103.947 91.9302C100.043 91.9833 96.3946 91.7 93.0016 91.0802C89.6394 90.4519 86.4974 89.4802 83.5757 88.1652C81.6476 90.792 79.4044 93.2405 76.846 95.5108C74.3271 97.8033 71.5015 99.9484 68.3695 101.946C67.9603 101.429 67.3782 100.826 66.6231 100.139C65.9073 99.4741 65.1565 98.8024 64.3706 98.1237C63.5932 97.4759 62.9005 96.954 62.2926 96.5581C65.3612 94.8105 68.1318 92.9463 70.6043 90.9655C73.0684 88.9538 75.2104 86.799 77.0305 84.501C74.4858 82.7494 72.0732 80.6954 69.7926 78.3392C67.512 75.983 65.3102 73.3724 63.1874 70.5075L56.6656 72.3162L54.8441 65.7481L72.6057 60.8223L70.6559 53.7917L77.5941 51.8676L79.5439 58.8982L97.5368 53.9083L99.3583 60.4764L92.8364 62.2851ZM70.7269 68.4166C72.2197 70.3272 73.8369 72.087 75.5782 73.6962C77.311 75.2745 79.1835 76.6979 81.1957 77.9663C83.1878 73.8938 84.4161 69.4022 84.8807 64.4914L70.7269 68.4166Z" fill="white"/>
</g>
<defs>
<clipPath id="clip0_101_2">
<rect width="128" height="128" fill="white"/>
</clipPath>
</defs>
</svg>
